# xmcd
#
# Track frame offsets:
#	150
#	10553
#	22516
#	35199
#	51632
#	67768
#	81486
#	93629
#	108187
#	122483
#	133906
#	145731
#	162944
#	173362
#	186293
#	198766
#	215357
#	227102
#	239793
#	251974
#	267575
#	278953
#	294006
#
# Disc length: 4104 seconds
#
# Revision: 0
# Processed by: cddbd v1.5.2PL0 Copyright (c) Steve Scherf et al.
# Submitted via: EasyCDDAExtractor 16.0.1.1
#
DISCID=4b100617
DTITLE=Commander Cody and His Lost Planet Airmen - Commander Cody and His Lost Pla
DTITLE=net Airmen and Tales From The Ozone
DYEAR=1975
DGENRE=Country
TTITLE0=Southbound
TTITLE1=Don't Let Go
TTITLE2=California Okie
TTITLE3=Willin'
TTITLE4=The Boogie Man Boogie
TTITLE5=Hawaii Blues
TTITLE6=House of Blue Lights
TTITLE7=Keep on Lovin' Her
TTITLE8=Devil and Me
TTITLE9=Four or Five Times
TTITLE10=That's What I Like About the South
TTITLE11=Minnie The Moocher
TTITLE12=It's Gonna Be One Of Those Nights
TTITLE13=Connie
TTITLE14=I Been To Georgia On A Fast Train
TTITLE15=Honky onk Music
TTITLE16=Lighnin' Bar Blues
TTITLE17=Paid In Advance
TTITLE18=Cajun Baby
TTITLE19=Tina Louise
TTITLE20=The Shadow Knows
TTITLE21=Roll Your Own
TTITLE22=Gypsy Fiddle
EXTD=
EXTT0=
EXTT1=
EXTT2=
EXTT3=
EXTT4=
EXTT5=
EXTT6=
EXTT7=
EXTT8=
EXTT9=
EXTT10=
EXTT11=
EXTT12=
EXTT13=
EXTT14=
EXTT15=
EXTT16=
EXTT17=
EXTT18=
EXTT19=
EXTT20=
EXTT21=
EXTT22=
PLAYORDER=
